<svg width="34" height="35" viewBox="0 0 34 35" fill="none" xmlns="http://www.w3.org/2000/svg">
<path fill-rule="evenodd" clip-rule="evenodd" d="M27 10C27 15.5228 22.5228 20 17 20C11.4772 20 7 15.5228 7 10C7 4.4772 11.4772 0 17 0C22.5228 0 27 4.4772 27 10ZM25 10C25 14.4183 21.4183 18 17 18C12.5817 18 9 14.4183 9 10C9 5.5817 12.5817 2 17 2C21.4183 2 25 5.5817 25 10Z" fill="#333333"/>
<path d="M23.5 22C23.2884 21.9484 23.0619 22.0523 22.9591 22.2615L19 33.5716V30L18.4255 25.9786C18.7941 25.901 19.0952 25.6194 19.1894 25.2425L19.6894 23.2425C19.8472 22.6114 19.3698 22 18.7192 22H15.2808C14.6302 22 14.1528 22.6114 14.3106 23.2425L14.8106 25.2425C14.9048 25.6194 15.2059 25.901 15.5745 25.9786L15 30V32.6963L11.0409 22.2615C10.9381 22.0523 10.7116 21.9484 10.5 22C10.1413 22.0875 9.7551 22.1779 9.3521 22.2722C7.09 22.8015 4.2944 23.4557 2.808 24.4317C1.04534 25.5891 0 26.9535 0 28.5V35H34V28.5C34 26.9535 32.9547 25.5891 31.192 24.4317C29.7056 23.4557 26.9099 22.8015 24.6478 22.2721C24.2448 22.1778 23.8587 22.0875 23.5 22Z" fill="#333333"/>
</svg>
